# MagicaVoxel @ Ephtracy

# group
o 

# material
mtllib Ground.mtl
usemtl palette

# normals
vn -1 0 0
vn 1 0 0
vn 0 0 1
vn 0 0 -1
vn 0 -1 0
vn 0 1 0

# texcoords
vt 0.974609 0.5
vt 0.978516 0.5
vt 0.982422 0.5
vt 0.986328 0.5

# verts
v -0.5 0 0.5
v -0.5 0 0.1
v -0.5 0 0
v -0.5 0 -0.5
v -0.5 0.1 0.5
v -0.5 0.1 0.1
v -0.5 0.1 -0.2
v -0.5 0.1 -0.5
v -0.5 0.2 0.5
v -0.5 0.2 0.1
v -0.5 0.2 0
v -0.5 0.2 -0.2
v -0.5 0.2 -0.5
v -0.5 0.3 0.5
v -0.5 0.3 0.1
v -0.5 0.3 0
v -0.5 0.3 -0.5
v -0.5 0.4 0.5
v -0.5 0.4 0.4
v -0.5 0.4 0.3
v -0.5 0.4 -0.2
v -0.5 0.4 -0.3
v -0.5 0.4 -0.5
v -0.5 0.5 0.5
v -0.5 0.5 0.4
v -0.5 0.5 0.3
v -0.5 0.5 0
v -0.5 0.5 -0.1
v -0.5 0.5 -0.2
v -0.5 0.5 -0.4
v -0.5 0.5 -0.5
v -0.5 0.6 0.5
v -0.5 0.6 0.4
v -0.5 0.6 0
v -0.5 0.6 -0.1
v -0.5 0.7 0.5
v -0.5 0.7 0.4
v -0.5 0.7 0.3
v -0.5 0.7 -0.2
v -0.5 0.7 -0.3
v -0.5 0.7 -0.4
v -0.5 0.7 -0.5
v -0.5 0.8 0.5
v -0.5 0.8 0.1
v -0.5 0.8 0
v -0.5 0.8 -0.1
v -0.5 0.8 -0.5
v -0.5 0.9 0.4
v -0.5 0.9 0.1
v -0.5 0.9 -0.1
v -0.5 0.9 -0.3
v -0.5 0.9 -0.5
v -0.5 1 0.5
v -0.5 1 0.4
v -0.5 1 0.1
v -0.5 1 0
v -0.5 1 -0.1
v -0.5 1 -0.3
v -0.5 1 -0.5
v 0.5 0 0.5
v 0.5 0 0.3
v 0.5 0 0.2
v 0.5 0 0.1
v 0.5 0 -0.2
v 0.5 0 -0.3
v 0.5 0 -0.5
v 0.5 0.1 0.5
v 0.5 0.1 0.3
v 0.5 0.1 0.1
v 0.5 0.1 -0.2
v 0.5 0.1 -0.3
v 0.5 0.1 -0.5
v 0.5 0.2 0.5
v 0.5 0.2 0.3
v 0.5 0.2 0.2
v 0.5 0.2 0.1
v 0.5 0.2 -0.1
v 0.5 0.2 -0.2
v 0.5 0.2 -0.3
v 0.5 0.2 -0.5
v 0.5 0.3 0.5
v 0.5 0.3 0.3
v 0.5 0.3 0.2
v 0.5 0.3 -0.1
v 0.5 0.3 -0.2
v 0.5 0.3 -0.3
v 0.5 0.3 -0.5
v 0.5 0.4 0.5
v 0.5 0.4 0.4
v 0.5 0.4 0.2
v 0.5 0.4 0
v 0.5 0.4 -0.1
v 0.5 0.4 -0.5
v 0.5 0.5 0.2
v 0.5 0.5 0.1
v 0.5 0.5 -0.1
v 0.5 0.5 -0.4
v 0.5 0.5 -0.5
v 0.5 0.6 0.5
v 0.5 0.6 0.4
v 0.5 0.6 0.3
v 0.5 0.6 -0.4
v 0.5 0.6 -0.5
v 0.5 0.7 0.5
v 0.5 0.7 0.4
v 0.5 0.7 0.3
v 0.5 0.7 0.1
v 0.5 0.7 0
v 0.5 0.7 -0.1
v 0.5 0.7 -0.5
v 0.5 0.8 0.5
v 0.5 0.8 0.4
v 0.5 0.8 0.3
v 0.5 0.8 0.2
v 0.5 0.8 0
v 0.5 0.8 -0.1
v 0.5 0.8 -0.2
v 0.5 0.8 -0.3
v 0.5 0.8 -0.5
v 0.5 0.9 0.2
v 0.5 0.9 0
v 0.5 0.9 -0.1
v 0.5 0.9 -0.2
v 0.5 1 0.5
v 0.5 1 0.4
v 0.5 1 0.3
v 0.5 1 0.2
v 0.5 1 0
v 0.5 1 -0.1
v 0.5 1 -0.2
v 0.5 1 -0.3
v 0.5 1 -0.5
v -0.5 0 0.5
v -0.5 0.1 0.5
v -0.5 0.2 0.5
v -0.5 0.3 0.5
v -0.5 0.4 0.5
v -0.5 0.5 0.5
v -0.5 0.6 0.5
v -0.5 0.7 0.5
v -0.5 0.8 0.5
v -0.5 1 0.5
v -0.4 0.2 0.5
v -0.4 0.3 0.5
v -0.4 0.4 0.5
v -0.4 0.5 0.5
v -0.4 0.6 0.5
v -0.3 0 0.5
v -0.3 0.1 0.5
v -0.3 0.3 0.5
v -0.3 0.4 0.5
v -0.3 0.5 0.5
v -0.3 0.6 0.5
v -0.3 0.8 0.5
v -0.3 1 0.5
v -0.2 0 0.5
v -0.2 0.1 0.5
v -0.2 0.2 0.5
v -0.2 0.3 0.5
v -0.2 0.4 0.5
v -0.2 0.5 0.5
v -0.2 0.8 0.5
v -0.2 0.9 0.5
v -0.2 1 0.5
v -0.1 0.4 0.5
v -0.1 0.6 0.5
v 0 0.4 0.5
v 0 0.7 0.5
v 0.1 0.4 0.5
v 0.1 0.6 0.5
v 0.1 0.7 0.5
v 0.2 0.5 0.5
v 0.2 0.6 0.5
v 0.2 0.7 0.5
v 0.2 0.8 0.5
v 0.2 0.9 0.5
v 0.3 0.1 0.5
v 0.3 0.2 0.5
v 0.3 0.3 0.5
v 0.3 0.8 0.5
v 0.3 1 0.5
v 0.4 0.1 0.5
v 0.4 0.2 0.5
v 0.4 0.3 0.5
v 0.4 0.4 0.5
v 0.4 0.5 0.5
v 0.4 0.8 0.5
v 0.4 1 0.5
v 0.5 0 0.5
v 0.5 0.1 0.5
v 0.5 0.2 0.5
v 0.5 0.3 0.5
v 0.5 0.4 0.5
v 0.5 0.6 0.5
v 0.5 0.7 0.5
v 0.5 0.8 0.5
v 0.5 1 0.5
v -0.5 0 -0.5
v -0.5 0.1 -0.5
v -0.5 0.2 -0.5
v -0.5 0.3 -0.5
v -0.5 0.4 -0.5
v -0.5 0.5 -0.5
v -0.5 0.7 -0.5
v -0.5 0.8 -0.5
v -0.5 0.9 -0.5
v -0.5 1 -0.5
v -0.4 0.8 -0.5
v -0.4 0.9 -0.5
v -0.3 0 -0.5
v -0.3 0.1 -0.5
v -0.3 0.2 -0.5
v -0.3 0.3 -0.5
v -0.3 0.8 -0.5
v -0.3 1 -0.5
v -0.2 0 -0.5
v -0.2 0.1 -0.5
v -0.2 0.3 -0.5
v -0.2 0.5 -0.5
v -0.2 0.6 -0.5
v -0.2 0.8 -0.5
v -0.2 0.9 -0.5
v -0.2 1 -0.5
v -0.1 0.9 -0.5
v -0.1 1 -0.5
v 0 0.4 -0.5
v 0 0.5 -0.5
v 0 0.6 -0.5
v 0 0.7 -0.5
v 0.1 0.4 -0.5
v 0.1 0.5 -0.5
v 0.1 0.7 -0.5
v 0.2 0.6 -0.5
v 0.2 0.7 -0.5
v 0.2 0.9 -0.5
v 0.2 1 -0.5
v 0.3 0 -0.5
v 0.3 0.1 -0.5
v 0.3 0.3 -0.5
v 0.3 0.8 -0.5
v 0.3 0.9 -0.5
v 0.3 1 -0.5
v 0.4 0.1 -0.5
v 0.4 0.2 -0.5
v 0.4 0.3 -0.5
v 0.4 0.8 -0.5
v 0.4 1 -0.5
v 0.5 0 -0.5
v 0.5 0.1 -0.5
v 0.5 0.2 -0.5
v 0.5 0.3 -0.5
v 0.5 0.4 -0.5
v 0.5 0.5 -0.5
v 0.5 0.6 -0.5
v 0.5 0.7 -0.5
v 0.5 0.8 -0.5
v 0.5 1 -0.5
v -0.5 0 0.5
v -0.3 0 0.5
v -0.2 0 0.5
v 0.5 0 0.5
v -0.3 0 0.4
v -0.2 0 0.4
v 0.4 0 0.3
v 0.5 0 0.3
v 0.4 0 0.2
v 0.5 0 0.2
v -0.5 0 0.1
v -0.4 0 0.1
v 0.4 0 0.1
v 0.5 0 0.1
v -0.5 0 0
v -0.4 0 0
v 0.4 0 -0.2
v 0.5 0 -0.2
v 0.4 0 -0.3
v 0.5 0 -0.3
v -0.3 0 -0.4
v -0.2 0 -0.4
v 0.3 0 -0.4
v -0.5 0 -0.5
v -0.3 0 -0.5
v -0.2 0 -0.5
v 0.3 0 -0.5
v 0.5 0 -0.5
v -0.5 1 0.5
v -0.3 1 0.5
v -0.2 1 0.5
v 0.3 1 0.5
v 0.4 1 0.5
v 0.5 1 0.5
v -0.5 1 0.4
v -0.3 1 0.4
v -0.2 1 0.4
v -0.1 1 0.4
v 0.1 1 0.4
v 0.3 1 0.4
v 0.4 1 0.4
v 0.5 1 0.4
v 0.1 1 0.3
v 0.3 1 0.3
v 0.4 1 0.3
v 0.5 1 0.3
v 0.4 1 0.2
v 0.5 1 0.2
v -0.5 1 0.1
v -0.3 1 0.1
v -0.1 1 0.1
v 0.1 1 0.1
v -0.5 1 0
v -0.3 1 0
v -0.2 1 0
v 0.1 1 0
v 0.3 1 0
v 0.4 1 0
v 0.5 1 0
v -0.5 1 -0.1
v -0.3 1 -0.1
v -0.2 1 -0.1
v 0.3 1 -0.1
v 0.4 1 -0.1
v 0.5 1 -0.1
v -0.4 1 -0.2
v -0.3 1 -0.2
v -0.2 1 -0.2
v -0.1 1 -0.2
v 0 1 -0.2
v 0.1 1 -0.2
v 0.4 1 -0.2
v 0.5 1 -0.2
v -0.5 1 -0.3
v -0.4 1 -0.3
v -0.2 1 -0.3
v -0.1 1 -0.3
v 0 1 -0.3
v 0.1 1 -0.3
v 0.2 1 -0.3
v 0.4 1 -0.3
v 0.5 1 -0.3
v -0.2 1 -0.4
v -0.1 1 -0.4
v -0.5 1 -0.5
v -0.3 1 -0.5
v -0.2 1 -0.5
v -0.1 1 -0.5
v 0.2 1 -0.5
v 0.3 1 -0.5
v 0.4 1 -0.5
v 0.5 1 -0.5

# faces
f 5/2/1 2/2/1 1/2/1
f 6/4/1 3/4/1 2/4/1
f 6/2/1 2/2/1 5/2/1
f 7/2/1 4/2/1 3/2/1
f 8/2/1 4/2/1 7/2/1
f 9/1/1 6/1/1 5/1/1
f 10/4/1 3/4/1 6/4/1
f 10/1/1 6/1/1 9/1/1
f 11/2/1 7/2/1 3/2/1
f 11/4/1 3/4/1 10/4/1
f 12/1/1 8/1/1 7/1/1
f 12/2/1 7/2/1 11/2/1
f 13/1/1 8/1/1 12/1/1
f 14/2/1 10/2/1 9/2/1
f 15/4/1 11/4/1 10/4/1
f 15/2/1 10/2/1 14/2/1
f 16/3/1 12/3/1 11/3/1
f 16/4/1 11/4/1 15/4/1
f 16/3/1 13/3/1 12/3/1
f 17/3/1 13/3/1 16/3/1
f 18/4/1 15/4/1 14/4/1
f 18/4/1 16/4/1 15/4/1
f 18/4/1 17/4/1 16/4/1
f 19/4/1 17/4/1 18/4/1
f 20/4/1 17/4/1 19/4/1
f 21/4/1 17/4/1 20/4/1
f 22/4/1 17/4/1 21/4/1
f 23/4/1 17/4/1 22/4/1
f 24/1/1 19/1/1 18/1/1
f 25/4/1 20/4/1 19/4/1
f 25/1/1 19/1/1 24/1/1
f 26/2/1 21/2/1 20/2/1
f 26/4/1 20/4/1 25/4/1
f 27/2/1 21/2/1 26/2/1
f 28/2/1 21/2/1 27/2/1
f 29/4/1 22/4/1 21/4/1
f 29/2/1 21/2/1 28/2/1
f 30/1/1 23/1/1 22/1/1
f 31/1/1 23/1/1 30/1/1
f 32/2/1 25/2/1 24/2/1
f 33/4/1 26/4/1 25/4/1
f 33/2/1 25/2/1 32/2/1
f 34/2/1 28/2/1 27/2/1
f 34/1/1 27/1/1 26/1/1
f 35/1/1 29/1/1 28/1/1
f 35/2/1 28/2/1 34/2/1
f 36/3/1 33/3/1 32/3/1
f 37/4/1 26/4/1 33/4/1
f 37/3/1 33/3/1 36/3/1
f 38/1/1 34/1/1 26/1/1
f 38/4/1 26/4/1 37/4/1
f 38/1/1 35/1/1 34/1/1
f 39/4/1 22/4/1 29/4/1
f 39/1/1 35/1/1 38/1/1
f 39/1/1 29/1/1 35/1/1
f 40/1/1 30/1/1 22/1/1
f 40/4/1 22/4/1 39/4/1
f 41/3/1 31/3/1 30/3/1
f 41/1/1 30/1/1 40/1/1
f 42/3/1 31/3/1 41/3/1
f 43/4/1 38/4/1 37/4/1
f 43/4/1 40/4/1 39/4/1
f 43/4/1 42/4/1 41/4/1
f 43/4/1 41/4/1 40/4/1
f 43/4/1 39/4/1 38/4/1
f 43/4/1 37/4/1 36/4/1
f 44/4/1 42/4/1 43/4/1
f 45/4/1 42/4/1 44/4/1
f 46/4/1 42/4/1 45/4/1
f 47/4/1 42/4/1 46/4/1
f 48/2/1 44/2/1 43/2/1
f 49/3/1 45/3/1 44/3/1
f 49/2/1 44/2/1 48/2/1
f 50/4/1 46/4/1 45/4/1
f 50/3/1 47/3/1 46/3/1
f 51/3/1 47/3/1 50/3/1
f 52/3/1 47/3/1 51/3/1
f 53/2/1 48/2/1 43/2/1
f 54/1/1 49/1/1 48/1/1
f 54/2/1 48/2/1 53/2/1
f 55/3/1 45/3/1 49/3/1
f 55/1/1 49/1/1 54/1/1
f 56/4/1 50/4/1 45/4/1
f 56/3/1 45/3/1 55/3/1
f 57/2/1 51/2/1 50/2/1
f 57/4/1 50/4/1 56/4/1
f 58/1/1 52/1/1 51/1/1
f 58/2/1 51/2/1 57/2/1
f 59/1/1 52/1/1 58/1/1
f 60/2/2 61/2/2 67/2/2
f 61/4/2 62/4/2 68/4/2
f 67/2/2 61/2/2 68/2/2
f 62/3/2 63/3/2 69/3/2
f 63/2/2 64/2/2 69/2/2
f 64/4/2 65/4/2 70/4/2
f 69/2/2 64/2/2 70/2/2
f 65/2/2 66/2/2 71/2/2
f 70/4/2 65/4/2 71/4/2
f 71/2/2 66/2/2 72/2/2
f 67/1/2 68/1/2 73/1/2
f 68/4/2 62/4/2 74/4/2
f 73/1/2 68/1/2 74/1/2
f 62/3/2 69/3/2 75/3/2
f 74/4/2 62/4/2 75/4/2
f 69/1/2 70/1/2 76/1/2
f 75/3/2 69/3/2 76/3/2
f 76/1/2 70/1/2 77/1/2
f 70/4/2 71/4/2 78/4/2
f 77/1/2 70/1/2 78/1/2
f 71/1/2 72/1/2 79/1/2
f 78/4/2 71/4/2 79/4/2
f 79/1/2 72/1/2 80/1/2
f 73/2/2 74/2/2 81/2/2
f 74/4/2 75/4/2 82/4/2
f 81/2/2 74/2/2 82/2/2
f 76/1/2 77/1/2 83/1/2
f 82/4/2 75/4/2 83/4/2
f 75/1/2 76/1/2 83/1/2
f 77/3/2 78/3/2 84/3/2
f 83/1/2 77/1/2 84/1/2
f 78/4/2 79/4/2 85/4/2
f 84/3/2 78/3/2 85/3/2
f 79/3/2 80/3/2 86/3/2
f 85/4/2 79/4/2 86/4/2
f 86/3/2 80/3/2 87/3/2
f 81/4/2 82/4/2 88/4/2
f 82/4/2 83/4/2 88/4/2
f 86/4/2 87/4/2 88/4/2
f 85/4/2 86/4/2 88/4/2
f 83/4/2 84/4/2 88/4/2
f 84/4/2 85/4/2 88/4/2
f 88/4/2 87/4/2 89/4/2
f 89/4/2 87/4/2 90/4/2
f 90/4/2 87/4/2 91/4/2
f 91/4/2 87/4/2 92/4/2
f 92/4/2 87/4/2 93/4/2
f 89/1/2 90/1/2 94/1/2
f 90/2/2 91/2/2 94/2/2
f 94/2/2 91/2/2 95/2/2
f 92/3/2 93/3/2 96/3/2
f 91/4/2 92/4/2 96/4/2
f 96/3/2 93/3/2 97/3/2
f 97/3/2 93/3/2 98/3/2
f 88/2/2 89/2/2 99/2/2
f 94/1/2 95/1/2 100/1/2
f 99/2/2 89/2/2 100/2/2
f 89/1/2 94/1/2 100/1/2
f 100/1/2 95/1/2 101/1/2
f 97/2/2 98/2/2 102/2/2
f 96/1/2 97/1/2 102/1/2
f 102/2/2 98/2/2 103/2/2
f 99/1/2 100/1/2 104/1/2
f 100/2/2 101/2/2 105/2/2
f 104/1/2 100/1/2 105/1/2
f 101/1/2 95/1/2 106/1/2
f 105/2/2 101/2/2 106/2/2
f 95/2/2 91/2/2 107/2/2
f 106/1/2 95/1/2 107/1/2
f 91/4/2 96/4/2 108/4/2
f 107/2/2 91/2/2 108/2/2
f 96/1/2 102/1/2 109/1/2
f 108/4/2 96/4/2 109/4/2
f 102/1/2 103/1/2 109/1/2
f 109/1/2 103/1/2 110/1/2
f 105/4/2 106/4/2 111/4/2
f 104/4/2 105/4/2 111/4/2
f 109/4/2 110/4/2 111/4/2
f 108/4/2 109/4/2 111/4/2
f 107/4/2 108/4/2 111/4/2
f 106/4/2 107/4/2 111/4/2
f 111/4/2 110/4/2 112/4/2
f 112/4/2 110/4/2 113/4/2
f 113/4/2 110/4/2 114/4/2
f 114/4/2 110/4/2 115/4/2
f 115/4/2 110/4/2 116/4/2
f 116/4/2 110/4/2 117/4/2
f 117/4/2 110/4/2 118/4/2
f 118/4/2 110/4/2 119/4/2
f 113/4/2 114/4/2 120/4/2
f 114/2/2 115/2/2 120/2/2
f 115/1/2 116/1/2 121/1/2
f 120/2/2 115/2/2 121/2/2
f 116/2/2 117/2/2 122/2/2
f 121/1/2 116/1/2 122/1/2
f 117/4/2 118/4/2 123/4/2
f 122/2/2 117/2/2 123/2/2
f 111/3/2 112/3/2 124/3/2
f 112/1/2 113/1/2 125/1/2
f 124/3/2 112/3/2 125/3/2
f 113/4/2 120/4/2 126/4/2
f 125/1/2 113/1/2 126/1/2
f 120/1/2 121/1/2 127/1/2
f 126/4/2 120/4/2 127/4/2
f 121/2/2 122/2/2 128/2/2
f 127/1/2 121/1/2 128/1/2
f 122/3/2 123/3/2 129/3/2
f 128/2/2 122/2/2 129/2/2
f 123/4/2 118/4/2 130/4/2
f 129/3/2 123/3/2 130/3/2
f 118/1/2 119/1/2 131/1/2
f 130/4/2 118/4/2 131/4/2
f 131/1/2 119/1/2 132/1/2
f 143/1/3 135/1/3 134/1/3
f 143/2/3 136/2/3 135/2/3
f 144/4/3 137/4/3 136/4/3
f 144/2/3 136/2/3 143/2/3
f 145/1/3 138/1/3 137/1/3
f 145/4/3 137/4/3 144/4/3
f 146/2/3 139/2/3 138/2/3
f 146/1/3 138/1/3 145/1/3
f 147/3/3 140/3/3 139/3/3
f 147/2/3 139/2/3 146/2/3
f 148/2/3 134/2/3 133/2/3
f 149/1/3 143/1/3 134/1/3
f 149/2/3 134/2/3 148/2/3
f 149/1/3 144/1/3 143/1/3
f 150/4/3 145/4/3 144/4/3
f 150/1/3 144/1/3 149/1/3
f 151/2/3 146/2/3 145/2/3
f 151/4/3 145/4/3 150/4/3
f 152/1/3 147/1/3 146/1/3
f 152/2/3 146/2/3 151/2/3
f 153/3/3 140/3/3 147/3/3
f 153/1/3 147/1/3 152/1/3
f 154/2/3 142/2/3 141/2/3
f 154/4/3 141/4/3 140/4/3
f 155/2/3 142/2/3 154/2/3
f 156/4/3 151/4/3 150/4/3
f 156/4/3 149/4/3 148/4/3
f 156/4/3 150/4/3 149/4/3
f 157/4/3 151/4/3 156/4/3
f 158/4/3 151/4/3 157/4/3
f 159/4/3 151/4/3 158/4/3
f 160/1/3 152/1/3 151/1/3
f 160/4/3 151/4/3 159/4/3
f 161/2/3 153/2/3 152/2/3
f 161/1/3 152/1/3 160/1/3
f 162/4/3 155/4/3 154/4/3
f 162/4/3 154/4/3 140/4/3
f 163/4/3 155/4/3 162/4/3
f 164/4/3 155/4/3 163/4/3
f 165/4/3 160/4/3 159/4/3
f 165/2/3 161/2/3 160/2/3
f 166/3/3 140/3/3 153/3/3
f 166/2/3 161/2/3 165/2/3
f 166/2/3 153/2/3 161/2/3
f 167/4/3 165/4/3 159/4/3
f 167/3/3 166/3/3 165/3/3
f 168/3/3 140/3/3 166/3/3
f 168/3/3 166/3/3 167/3/3
f 168/4/3 162/4/3 140/4/3
f 169/4/3 167/4/3 159/4/3
f 169/4/3 168/4/3 167/4/3
f 170/4/3 168/4/3 169/4/3
f 171/4/3 162/4/3 168/4/3
f 171/4/3 168/4/3 170/4/3
f 172/1/3 170/1/3 169/1/3
f 173/2/3 171/2/3 170/2/3
f 173/1/3 170/1/3 172/1/3
f 174/4/3 162/4/3 171/4/3
f 174/2/3 171/2/3 173/2/3
f 175/1/3 163/1/3 162/1/3
f 175/4/3 162/4/3 174/4/3
f 176/2/3 164/2/3 163/2/3
f 176/1/3 163/1/3 175/1/3
f 177/2/3 157/2/3 156/2/3
f 177/1/3 158/1/3 157/1/3
f 178/2/3 159/2/3 158/2/3
f 178/1/3 158/1/3 177/1/3
f 179/4/3 169/4/3 159/4/3
f 179/2/3 159/2/3 178/2/3
f 180/4/3 175/4/3 174/4/3
f 180/2/3 176/2/3 175/2/3
f 181/2/3 164/2/3 176/2/3
f 181/2/3 176/2/3 180/2/3
f 182/2/3 177/2/3 156/2/3
f 182/4/3 179/4/3 178/4/3
f 182/4/3 178/4/3 177/4/3
f 183/4/3 179/4/3 182/4/3
f 184/4/3 169/4/3 179/4/3
f 184/4/3 179/4/3 183/4/3
f 185/1/3 172/1/3 169/1/3
f 185/4/3 169/4/3 184/4/3
f 186/2/3 173/2/3 172/2/3
f 186/1/3 172/1/3 185/1/3
f 187/4/3 180/4/3 174/4/3
f 187/4/3 181/4/3 180/4/3
f 188/4/3 181/4/3 187/4/3
f 189/2/3 182/2/3 156/2/3
f 190/1/3 183/1/3 182/1/3
f 190/2/3 182/2/3 189/2/3
f 191/2/3 184/2/3 183/2/3
f 191/1/3 183/1/3 190/1/3
f 192/4/3 185/4/3 184/4/3
f 192/2/3 184/2/3 191/2/3
f 193/2/3 186/2/3 185/2/3
f 193/4/3 185/4/3 192/4/3
f 194/1/3 174/1/3 173/1/3
f 194/2/3 186/2/3 193/2/3
f 194/2/3 173/2/3 186/2/3
f 195/4/3 187/4/3 174/4/3
f 195/1/3 174/1/3 194/1/3
f 196/3/3 188/3/3 187/3/3
f 196/4/3 187/4/3 195/4/3
f 197/3/3 188/3/3 196/3/3
f 204/4/4 205/4/4 208/4/4
f 205/3/4 206/3/4 208/3/4
f 206/1/4 207/1/4 209/1/4
f 208/3/4 206/3/4 209/3/4
f 198/2/4 199/2/4 210/2/4
f 199/1/4 200/1/4 211/1/4
f 210/2/4 199/2/4 211/2/4
f 200/3/4 201/3/4 212/3/4
f 211/1/4 200/1/4 212/1/4
f 201/4/4 202/4/4 213/4/4
f 212/3/4 201/3/4 213/3/4
f 204/4/4 208/4/4 214/4/4
f 208/1/4 209/1/4 214/1/4
f 209/1/4 207/1/4 215/1/4
f 214/1/4 209/1/4 215/1/4
f 210/4/4 211/4/4 216/4/4
f 211/4/4 212/4/4 216/4/4
f 212/4/4 213/4/4 216/4/4
f 216/4/4 213/4/4 217/4/4
f 213/4/4 202/4/4 218/4/4
f 217/4/4 213/4/4 218/4/4
f 202/1/4 203/1/4 219/1/4
f 203/3/4 204/3/4 219/3/4
f 219/3/4 204/3/4 220/3/4
f 204/4/4 214/4/4 221/4/4
f 214/4/4 215/4/4 221/4/4
f 221/4/4 215/4/4 222/4/4
f 222/4/4 215/4/4 223/4/4
f 221/1/4 222/1/4 224/1/4
f 222/2/4 223/2/4 224/2/4
f 224/2/4 223/2/4 225/2/4
f 218/4/4 202/4/4 226/4/4
f 202/1/4 219/1/4 226/1/4
f 219/2/4 220/2/4 227/2/4
f 226/1/4 219/1/4 227/1/4
f 220/3/4 204/3/4 228/3/4
f 227/2/4 220/2/4 228/2/4
f 204/4/4 221/4/4 229/4/4
f 228/3/4 204/3/4 229/3/4
f 226/4/4 227/4/4 230/4/4
f 218/4/4 226/4/4 230/4/4
f 228/4/4 229/4/4 230/4/4
f 227/4/4 228/4/4 230/4/4
f 230/4/4 229/4/4 231/4/4
f 229/4/4 221/4/4 232/4/4
f 231/4/4 229/4/4 232/4/4
f 231/2/4 232/2/4 233/2/4
f 232/4/4 221/4/4 234/4/4
f 233/2/4 232/2/4 234/2/4
f 221/1/4 224/1/4 235/1/4
f 224/1/4 225/1/4 235/1/4
f 235/1/4 225/1/4 236/1/4
f 216/3/4 217/3/4 237/3/4
f 217/1/4 218/1/4 238/1/4
f 237/3/4 217/3/4 238/3/4
f 218/4/4 230/4/4 239/4/4
f 238/1/4 218/1/4 239/1/4
f 234/4/4 221/4/4 240/4/4
f 221/1/4 235/1/4 240/1/4
f 235/3/4 236/3/4 241/3/4
f 240/1/4 235/1/4 241/1/4
f 241/3/4 236/3/4 242/3/4
f 237/2/4 238/2/4 243/2/4
f 238/4/4 239/4/4 243/4/4
f 243/4/4 239/4/4 244/4/4
f 239/4/4 230/4/4 245/4/4
f 244/4/4 239/4/4 245/4/4
f 241/4/4 242/4/4 246/4/4
f 234/4/4 240/4/4 246/4/4
f 240/4/4 241/4/4 246/4/4
f 246/4/4 242/4/4 247/4/4
f 237/2/4 243/2/4 248/2/4
f 243/1/4 244/1/4 249/1/4
f 248/2/4 243/2/4 249/2/4
f 244/3/4 245/3/4 250/3/4
f 249/1/4 244/1/4 250/1/4
f 245/4/4 230/4/4 251/4/4
f 250/3/4 245/3/4 251/3/4
f 230/3/4 231/3/4 252/3/4
f 251/4/4 230/4/4 252/4/4
f 231/2/4 233/2/4 253/2/4
f 252/3/4 231/3/4 253/3/4
f 233/1/4 234/1/4 254/1/4
f 253/2/4 233/2/4 254/2/4
f 234/4/4 246/4/4 255/4/4
f 254/1/4 234/1/4 255/1/4
f 246/1/4 247/1/4 256/1/4
f 255/4/4 246/4/4 256/4/4
f 256/1/4 247/1/4 257/1/4
f 262/2/5 259/2/5 258/2/5
f 262/4/5 260/4/5 259/4/5
f 263/2/5 261/2/5 260/2/5
f 263/4/5 260/4/5 262/4/5
f 264/2/5 263/2/5 262/2/5
f 264/2/5 261/2/5 263/2/5
f 265/2/5 261/2/5 264/2/5
f 266/2/5 264/2/5 262/2/5
f 266/4/5 265/4/5 264/4/5
f 267/4/5 265/4/5 266/4/5
f 268/2/5 262/2/5 258/2/5
f 268/2/5 266/2/5 262/2/5
f 269/2/5 266/2/5 268/2/5
f 270/3/5 267/3/5 266/3/5
f 270/2/5 266/2/5 269/2/5
f 271/3/5 267/3/5 270/3/5
f 272/4/5 269/4/5 268/4/5
f 273/2/5 270/2/5 269/2/5
f 273/4/5 269/4/5 272/4/5
f 273/2/5 271/2/5 270/2/5
f 274/2/5 273/2/5 272/2/5
f 274/2/5 271/2/5 273/2/5
f 275/2/5 271/2/5 274/2/5
f 276/2/5 274/2/5 272/2/5
f 276/4/5 275/4/5 274/4/5
f 277/4/5 275/4/5 276/4/5
f 278/2/5 276/2/5 272/2/5
f 278/2/5 277/2/5 276/2/5
f 279/2/5 277/2/5 278/2/5
f 280/2/5 277/2/5 279/2/5
f 281/2/5 278/2/5 272/2/5
f 282/4/5 279/4/5 278/4/5
f 282/2/5 278/2/5 281/2/5
f 283/3/5 280/3/5 279/3/5
f 283/4/5 279/4/5 282/4/5
f 284/2/5 277/2/5 280/2/5
f 284/3/5 280/3/5 283/3/5
f 285/2/5 277/2/5 284/2/5
f 286/2/6 287/2/6 292/2/6
f 287/4/6 288/4/6 293/4/6
f 292/2/6 287/2/6 293/2/6
f 288/2/6 289/2/6 294/2/6
f 293/4/6 288/4/6 294/4/6
f 294/2/6 289/2/6 295/2/6
f 295/2/6 289/2/6 296/2/6
f 289/4/6 290/4/6 297/4/6
f 296/2/6 289/2/6 297/2/6
f 290/3/6 291/3/6 298/3/6
f 297/4/6 290/4/6 298/4/6
f 298/3/6 291/3/6 299/3/6
f 296/3/6 297/3/6 300/3/6
f 295/1/6 296/1/6 300/1/6
f 297/4/6 298/4/6 301/4/6
f 300/3/6 297/3/6 301/3/6
f 298/1/6 299/1/6 302/1/6
f 301/4/6 298/4/6 302/4/6
f 302/1/6 299/1/6 303/1/6
f 301/4/6 302/4/6 304/4/6
f 302/4/6 303/4/6 304/4/6
f 304/4/6 303/4/6 305/4/6
f 292/1/6 293/1/6 306/1/6
f 293/4/6 294/4/6 307/4/6
f 306/1/6 293/1/6 307/1/6
f 300/1/6 301/1/6 308/1/6
f 294/3/6 295/3/6 308/3/6
f 295/1/6 300/1/6 308/1/6
f 308/1/6 301/1/6 309/1/6
f 306/3/6 307/3/6 310/3/6
f 307/4/6 294/4/6 311/4/6
f 310/3/6 307/3/6 311/3/6
f 294/3/6 308/3/6 312/3/6
f 311/4/6 294/4/6 312/4/6
f 308/3/6 309/3/6 312/3/6
f 309/1/6 301/1/6 313/1/6
f 312/3/6 309/3/6 313/3/6
f 301/4/6 304/4/6 314/4/6
f 313/1/6 301/1/6 314/1/6
f 304/1/6 305/1/6 315/1/6
f 314/4/6 304/4/6 315/4/6
f 315/1/6 305/1/6 316/1/6
f 311/4/6 312/4/6 317/4/6
f 313/4/6 314/4/6 317/4/6
f 312/4/6 313/4/6 317/4/6
f 314/4/6 315/4/6 317/4/6
f 310/4/6 311/4/6 317/4/6
f 317/4/6 315/4/6 318/4/6
f 318/4/6 315/4/6 319/4/6
f 319/4/6 315/4/6 320/4/6
f 315/2/6 316/2/6 321/2/6
f 320/4/6 315/4/6 321/4/6
f 321/2/6 316/2/6 322/2/6
f 317/2/6 318/2/6 323/2/6
f 318/4/6 319/4/6 324/4/6
f 323/2/6 318/2/6 324/2/6
f 319/3/6 320/3/6 325/3/6
f 324/4/6 319/4/6 325/4/6
f 325/3/6 320/3/6 326/3/6
f 326/3/6 320/3/6 327/3/6
f 327/3/6 320/3/6 328/3/6
f 320/4/6 321/4/6 329/4/6
f 321/3/6 322/3/6 329/3/6
f 329/3/6 322/3/6 330/3/6
f 317/2/6 323/2/6 331/2/6
f 323/1/6 324/1/6 332/1/6
f 331/2/6 323/2/6 332/2/6
f 324/4/6 325/4/6 333/4/6
f 325/2/6 326/2/6 333/2/6
f 326/1/6 327/1/6 334/1/6
f 333/2/6 326/2/6 334/2/6
f 327/2/6 328/2/6 335/2/6
f 334/1/6 327/1/6 335/1/6
f 328/3/6 320/3/6 336/3/6
f 335/2/6 328/2/6 336/2/6
f 336/3/6 320/3/6 337/3/6
f 320/4/6 329/4/6 338/4/6
f 329/4/6 330/4/6 338/4/6
f 338/4/6 330/4/6 339/4/6
f 334/1/6 335/1/6 340/1/6
f 333/1/6 334/1/6 340/1/6
f 324/4/6 333/4/6 340/4/6
f 336/1/6 337/1/6 340/1/6
f 335/1/6 336/1/6 340/1/6
f 340/1/6 337/1/6 341/1/6
f 331/1/6 332/1/6 342/1/6
f 332/1/6 324/1/6 343/1/6
f 342/1/6 332/1/6 343/1/6
f 324/4/6 340/4/6 343/4/6
f 340/2/6 341/2/6 344/2/6
f 343/4/6 340/4/6 344/4/6
f 341/1/6 337/1/6 345/1/6
f 344/2/6 341/2/6 345/2/6
f 337/3/6 320/3/6 346/3/6
f 345/1/6 337/1/6 346/1/6
f 320/4/6 338/4/6 347/4/6
f 346/3/6 320/3/6 347/3/6
f 338/1/6 339/1/6 348/1/6
f 347/4/6 338/4/6 348/4/6
f 348/1/6 339/1/6 349/1/6
