# MagicaVoxel @ Ephtracy

# group
o 

# material
mtllib Player.mtl
usemtl palette

# normals
vn -1 0 0
vn 1 0 0
vn 0 0 1
vn 0 0 -1
vn 0 -1 0
vn 0 1 0

# texcoords
vt 0.0683594 0.5
vt 0.185547 0.5
vt 0.208984 0.5
vt 0.439453 0.5
vt 0.462891 0.5
vt 0.603516 0.5
vt 0.607422 0.5
vt 0.630859 0.5
vt 0.994141 0.5

# verts
v -0.4 0.5 0.1
v -0.4 0.5 -0.1
v -0.4 0.8 0.1
v -0.4 0.8 -0.1
v -0.3 0 0.1
v -0.3 0 0
v -0.3 0.1 0.1
v -0.3 0.1 0
v -0.3 0.4 0.1
v -0.3 0.4 -0.1
v -0.3 0.5 0.2
v -0.3 0.5 0.1
v -0.3 0.5 -0.1
v -0.3 0.5 -0.3
v -0.3 0.7 0.2
v -0.3 0.7 0.1
v -0.3 0.8 0.2
v -0.3 0.8 0.1
v -0.3 0.8 -0.1
v -0.3 0.8 -0.3
v -0.3 0.9 0.1
v -0.3 0.9 -0.1
v -0.2 0 0.2
v -0.2 0 0.1
v -0.2 0.1 0.2
v -0.2 0.1 0.1
v -0.2 0.1 0
v -0.2 0.3 0
v -0.2 0.3 -0.2
v -0.2 0.4 0.2
v -0.2 0.4 0.1
v -0.2 0.4 -0.1
v -0.2 0.4 -0.2
v -0.2 0.4 -0.3
v -0.2 0.5 0.2
v -0.2 0.5 0.1
v -0.2 0.5 -0.1
v -0.2 0.5 -0.3
v -0.2 0.5 -0.4
v -0.2 0.7 0.3
v -0.2 0.7 0.2
v -0.2 0.8 0.3
v -0.2 0.8 0.2
v -0.2 0.8 0.1
v -0.2 0.8 -0.1
v -0.2 0.8 -0.3
v -0.2 0.8 -0.4
v -0.2 0.9 0.2
v -0.2 0.9 0.1
v -0.2 0.9 -0.1
v -0.2 0.9 -0.3
v -0.2 1 0.2
v -0.2 1 -0.1
v -0.1 0.3 0.2
v -0.1 0.3 0.1
v -0.1 0.3 -0.2
v -0.1 0.3 -0.3
v -0.1 0.4 0.2
v -0.1 0.4 0.1
v -0.1 0.4 -0.2
v -0.1 0.4 -0.3
v -0.1 0.4 -0.4
v -0.1 0.5 0.4
v -0.1 0.5 0.3
v -0.1 0.5 0.2
v -0.1 0.5 -0.3
v -0.1 0.5 -0.4
v -0.1 0.6 0.4
v -0.1 0.6 0.3
v -0.1 0.6 -0.4
v -0.1 0.6 -0.5
v -0.1 0.7 0.4
v -0.1 0.7 0.3
v -0.1 0.7 0.2
v -0.1 0.7 -0.4
v -0.1 0.7 -0.5
v -0.1 0.8 -0.3
v -0.1 0.8 -0.4
v -0.1 0.9 -0.1
v -0.1 0.9 -0.3
v -0.1 0.9 -0.4
v -0.1 1 0.1
v -0.1 1 -0.1
v -0.1 1 -0.3
v -0.1 1.1 0.1
v -0.1 1.1 -0.1
v 0.1 0 0.2
v 0.1 0 0
v 0.1 0.1 0.2
v 0.1 0.1 0.1
v 0.1 0.3 0.1
v 0.1 0.3 0
v -0.1 0 0.2
v -0.1 0 0
v -0.1 0.1 0.2
v -0.1 0.1 0.1
v -0.1 0.3 0.1
v -0.1 0.3 0
v 0.1 0.3 0.2
v 0.1 0.3 0.1
v 0.1 0.3 -0.2
v 0.1 0.3 -0.3
v 0.1 0.4 0.2
v 0.1 0.4 0.1
v 0.1 0.4 -0.2
v 0.1 0.4 -0.3
v 0.1 0.4 -0.4
v 0.1 0.5 0.4
v 0.1 0.5 0.3
v 0.1 0.5 0.2
v 0.1 0.5 -0.3
v 0.1 0.5 -0.4
v 0.1 0.6 0.4
v 0.1 0.6 0.3
v 0.1 0.6 -0.4
v 0.1 0.6 -0.5
v 0.1 0.7 0.4
v 0.1 0.7 0.3
v 0.1 0.7 0.2
v 0.1 0.7 -0.4
v 0.1 0.7 -0.5
v 0.1 0.8 -0.3
v 0.1 0.8 -0.4
v 0.1 0.9 -0.1
v 0.1 0.9 -0.3
v 0.1 0.9 -0.4
v 0.1 1 0.1
v 0.1 1 -0.1
v 0.1 1 -0.3
v 0.1 1.1 0.1
v 0.1 1.1 -0.1
v 0.2 0 0.2
v 0.2 0 0.1
v 0.2 0.1 0.2
v 0.2 0.1 0.1
v 0.2 0.1 0
v 0.2 0.3 0
v 0.2 0.3 -0.2
v 0.2 0.4 0.2
v 0.2 0.4 0.1
v 0.2 0.4 -0.1
v 0.2 0.4 -0.2
v 0.2 0.4 -0.3
v 0.2 0.5 0.2
v 0.2 0.5 0.1
v 0.2 0.5 -0.1
v 0.2 0.5 -0.3
v 0.2 0.5 -0.4
v 0.2 0.7 0.3
v 0.2 0.7 0.2
v 0.2 0.8 0.3
v 0.2 0.8 0.2
v 0.2 0.8 0.1
v 0.2 0.8 -0.1
v 0.2 0.8 -0.3
v 0.2 0.8 -0.4
v 0.2 0.9 0.2
v 0.2 0.9 0.1
v 0.2 0.9 -0.1
v 0.2 0.9 -0.3
v 0.2 1 0.2
v 0.2 1 -0.1
v 0.3 0 0.1
v 0.3 0 0
v 0.3 0.1 0.1
v 0.3 0.1 0
v 0.3 0.4 0.1
v 0.3 0.4 -0.1
v 0.3 0.5 0.2
v 0.3 0.5 0.1
v 0.3 0.5 -0.1
v 0.3 0.5 -0.3
v 0.3 0.7 0.2
v 0.3 0.7 0.1
v 0.3 0.8 0.2
v 0.3 0.8 0.1
v 0.3 0.8 -0.1
v 0.3 0.8 -0.3
v 0.3 0.9 0.1
v 0.3 0.9 -0.1
v 0.4 0.5 0.1
v 0.4 0.5 -0.1
v 0.4 0.8 0.1
v 0.4 0.8 -0.1
v -0.1 0.5 0.4
v -0.1 0.6 0.4
v -0.1 0.7 0.4
v 0.1 0.5 0.4
v 0.1 0.6 0.4
v 0.1 0.7 0.4
v -0.2 0.7 0.3
v -0.2 0.8 0.3
v -0.1 0.7 0.3
v -0.1 0.8 0.3
v 0.1 0.7 0.3
v 0.1 0.8 0.3
v 0.2 0.7 0.3
v 0.2 0.8 0.3
v -0.3 0.5 0.2
v -0.3 0.7 0.2
v -0.3 0.8 0.2
v -0.2 0 0.2
v -0.2 0.1 0.2
v -0.2 0.4 0.2
v -0.2 0.5 0.2
v -0.2 0.7 0.2
v -0.2 0.8 0.2
v -0.2 0.9 0.2
v -0.2 1 0.2
v -0.1 0 0.2
v -0.1 0.1 0.2
v -0.1 0.3 0.2
v -0.1 0.4 0.2
v -0.1 0.5 0.2
v -0.1 0.7 0.2
v -0.1 0.8 0.2
v -0.1 0.9 0.2
v -0.1 1 0.2
v 0.1 0 0.2
v 0.1 0.1 0.2
v 0.1 0.3 0.2
v 0.1 0.4 0.2
v 0.1 0.5 0.2
v 0.1 0.7 0.2
v 0.1 0.8 0.2
v 0.1 0.9 0.2
v 0.1 1 0.2
v 0.2 0 0.2
v 0.2 0.1 0.2
v 0.2 0.4 0.2
v 0.2 0.5 0.2
v 0.2 0.7 0.2
v 0.2 0.8 0.2
v 0.2 0.9 0.2
v 0.2 1 0.2
v 0.3 0.5 0.2
v 0.3 0.7 0.2
v 0.3 0.8 0.2
v -0.4 0.5 0.1
v -0.4 0.8 0.1
v -0.3 0 0.1
v -0.3 0.1 0.1
v -0.3 0.4 0.1
v -0.3 0.5 0.1
v -0.3 0.7 0.1
v -0.3 0.8 0.1
v -0.3 0.9 0.1
v -0.2 0 0.1
v -0.2 0.1 0.1
v -0.2 0.4 0.1
v -0.2 0.5 0.1
v -0.2 0.8 0.1
v -0.2 0.9 0.1
v -0.1 0.1 0.1
v -0.1 0.3 0.1
v -0.1 0.4 0.1
v -0.1 1 0.1
v -0.1 1.1 0.1
v 0.1 0.1 0.1
v 0.1 0.3 0.1
v 0.1 0.4 0.1
v 0.1 1 0.1
v 0.1 1.1 0.1
v 0.2 0 0.1
v 0.2 0.1 0.1
v 0.2 0.4 0.1
v 0.2 0.5 0.1
v 0.2 0.8 0.1
v 0.2 0.9 0.1
v 0.3 0 0.1
v 0.3 0.1 0.1
v 0.3 0.4 0.1
v 0.3 0.5 0.1
v 0.3 0.7 0.1
v 0.3 0.8 0.1
v 0.3 0.9 0.1
v 0.4 0.5 0.1
v 0.4 0.8 0.1
v -0.3 0 0
v -0.3 0.1 0
v -0.2 0.1 0
v -0.2 0.3 0
v -0.1 0 0
v -0.1 0.3 0
v 0.1 0 0
v 0.1 0.3 0
v 0.2 0.1 0
v 0.2 0.3 0
v 0.3 0 0
v 0.3 0.1 0
v -0.4 0.5 -0.1
v -0.4 0.8 -0.1
v -0.3 0.4 -0.1
v -0.3 0.5 -0.1
v -0.3 0.8 -0.1
v -0.3 0.9 -0.1
v -0.2 0.4 -0.1
v -0.2 0.5 -0.1
v -0.2 0.8 -0.1
v -0.2 0.9 -0.1
v -0.2 1 -0.1
v -0.1 0.9 -0.1
v -0.1 1 -0.1
v -0.1 1.1 -0.1
v 0.1 0.9 -0.1
v 0.1 1 -0.1
v 0.1 1.1 -0.1
v 0.2 0.4 -0.1
v 0.2 0.5 -0.1
v 0.2 0.8 -0.1
v 0.2 0.9 -0.1
v 0.2 1 -0.1
v 0.3 0.4 -0.1
v 0.3 0.5 -0.1
v 0.3 0.8 -0.1
v 0.3 0.9 -0.1
v 0.4 0.5 -0.1
v 0.4 0.8 -0.1
v -0.2 0.3 -0.2
v -0.2 0.4 -0.2
v -0.1 0.3 -0.2
v -0.1 0.4 -0.2
v 0.1 0.3 -0.2
v 0.1 0.4 -0.2
v 0.2 0.3 -0.2
v 0.2 0.4 -0.2
v -0.3 0.5 -0.3
v -0.3 0.8 -0.3
v -0.2 0.4 -0.3
v -0.2 0.5 -0.3
v -0.2 0.8 -0.3
v -0.2 0.9 -0.3
v -0.1 0.3 -0.3
v -0.1 0.4 -0.3
v -0.1 0.5 -0.3
v -0.1 0.8 -0.3
v -0.1 0.9 -0.3
v -0.1 1 -0.3
v 0.1 0.3 -0.3
v 0.1 0.4 -0.3
v 0.1 0.5 -0.3
v 0.1 0.8 -0.3
v 0.1 0.9 -0.3
v 0.1 1 -0.3
v 0.2 0.4 -0.3
v 0.2 0.5 -0.3
v 0.2 0.8 -0.3
v 0.2 0.9 -0.3
v 0.3 0.5 -0.3
v 0.3 0.8 -0.3
v -0.2 0.5 -0.4
v -0.2 0.8 -0.4
v -0.1 0.4 -0.4
v -0.1 0.5 -0.4
v -0.1 0.6 -0.4
v -0.1 0.7 -0.4
v -0.1 0.8 -0.4
v -0.1 0.9 -0.4
v 0.1 0.4 -0.4
v 0.1 0.5 -0.4
v 0.1 0.6 -0.4
v 0.1 0.7 -0.4
v 0.1 0.8 -0.4
v 0.1 0.9 -0.4
v 0.2 0.5 -0.4
v 0.2 0.8 -0.4
v -0.1 0.6 -0.5
v -0.1 0.7 -0.5
v 0.1 0.6 -0.5
v 0.1 0.7 -0.5
v -0.2 0 0.2
v -0.1 0 0.2
v 0.1 0 0.2
v 0.2 0 0.2
v -0.3 0 0.1
v -0.2 0 0.1
v 0.2 0 0.1
v 0.3 0 0.1
v -0.3 0 0
v -0.1 0 0
v 0.1 0 0
v 0.3 0 0
v -0.1 0.3 0.2
v 0.1 0.3 0.2
v -0.1 0.3 0.1
v 0.1 0.3 0.1
v -0.2 0.3 0
v -0.1 0.3 0
v 0.1 0.3 0
v 0.2 0.3 0
v -0.2 0.3 -0.2
v -0.1 0.3 -0.2
v 0.1 0.3 -0.2
v 0.2 0.3 -0.2
v -0.1 0.3 -0.3
v 0.1 0.3 -0.3
v -0.2 0.4 0.2
v -0.1 0.4 0.2
v 0.1 0.4 0.2
v 0.2 0.4 0.2
v -0.3 0.4 0.1
v -0.2 0.4 0.1
v -0.1 0.4 0.1
v 0.1 0.4 0.1
v 0.2 0.4 0.1
v 0.3 0.4 0.1
v -0.3 0.4 -0.1
v -0.2 0.4 -0.1
v 0.2 0.4 -0.1
v 0.3 0.4 -0.1
v -0.2 0.4 -0.2
v -0.1 0.4 -0.2
v 0.1 0.4 -0.2
v 0.2 0.4 -0.2
v -0.2 0.4 -0.3
v -0.1 0.4 -0.3
v 0.1 0.4 -0.3
v 0.2 0.4 -0.3
v -0.1 0.4 -0.4
v 0.1 0.4 -0.4
v -0.1 0.5 0.4
v 0.1 0.5 0.4
v -0.1 0.5 0.3
v 0.1 0.5 0.3
v -0.3 0.5 0.2
v -0.2 0.5 0.2
v -0.1 0.5 0.2
v 0.1 0.5 0.2
v 0.2 0.5 0.2
v 0.3 0.5 0.2
v -0.4 0.5 0.1
v -0.3 0.5 0.1
v -0.2 0.5 0.1
v 0.2 0.5 0.1
v 0.3 0.5 0.1
v 0.4 0.5 0.1
v -0.4 0.5 -0.1
v -0.3 0.5 -0.1
v -0.2 0.5 -0.1
v 0.2 0.5 -0.1
v 0.3 0.5 -0.1
v 0.4 0.5 -0.1
v -0.3 0.5 -0.3
v -0.2 0.5 -0.3
v -0.1 0.5 -0.3
v 0.1 0.5 -0.3
v 0.2 0.5 -0.3
v 0.3 0.5 -0.3
v -0.2 0.5 -0.4
v -0.1 0.5 -0.4
v 0.1 0.5 -0.4
v 0.2 0.5 -0.4
v -0.1 0.6 -0.4
v 0.1 0.6 -0.4
v -0.1 0.6 -0.5
v 0.1 0.6 -0.5
v -0.2 0.7 0.3
v -0.1 0.7 0.3
v 0.1 0.7 0.3
v 0.2 0.7 0.3
v -0.2 0.7 0.2
v -0.1 0.7 0.2
v 0.1 0.7 0.2
v 0.2 0.7 0.2
v -0.2 0.1 0.2
v -0.1 0.1 0.2
v 0.1 0.1 0.2
v 0.2 0.1 0.2
v -0.3 0.1 0.1
v -0.2 0.1 0.1
v -0.1 0.1 0.1
v 0.1 0.1 0.1
v 0.2 0.1 0.1
v 0.3 0.1 0.1
v -0.3 0.1 0
v -0.2 0.1 0
v 0.2 0.1 0
v 0.3 0.1 0
v -0.1 0.7 0.4
v 0.1 0.7 0.4
v -0.1 0.7 0.3
v 0.1 0.7 0.3
v -0.1 0.7 -0.4
v 0.1 0.7 -0.4
v -0.1 0.7 -0.5
v 0.1 0.7 -0.5
v -0.2 0.8 0.3
v -0.1 0.8 0.3
v 0.1 0.8 0.3
v 0.2 0.8 0.3
v -0.3 0.8 0.2
v -0.2 0.8 0.2
v -0.1 0.8 0.2
v 0.1 0.8 0.2
v 0.2 0.8 0.2
v 0.3 0.8 0.2
v -0.4 0.8 0.1
v -0.3 0.8 0.1
v -0.2 0.8 0.1
v 0.2 0.8 0.1
v 0.3 0.8 0.1
v 0.4 0.8 0.1
v -0.4 0.8 -0.1
v -0.3 0.8 -0.1
v -0.2 0.8 -0.1
v 0.2 0.8 -0.1
v 0.3 0.8 -0.1
v 0.4 0.8 -0.1
v -0.3 0.8 -0.3
v -0.2 0.8 -0.3
v -0.1 0.8 -0.3
v 0.1 0.8 -0.3
v 0.2 0.8 -0.3
v 0.3 0.8 -0.3
v -0.2 0.8 -0.4
v -0.1 0.8 -0.4
v 0.1 0.8 -0.4
v 0.2 0.8 -0.4
v -0.3 0.9 0.1
v -0.2 0.9 0.1
v 0.2 0.9 0.1
v 0.3 0.9 0.1
v -0.3 0.9 -0.1
v -0.2 0.9 -0.1
v -0.1 0.9 -0.1
v 0.1 0.9 -0.1
v 0.2 0.9 -0.1
v 0.3 0.9 -0.1
v -0.2 0.9 -0.3
v -0.1 0.9 -0.3
v 0.1 0.9 -0.3
v 0.2 0.9 -0.3
v -0.1 0.9 -0.4
v 0.1 0.9 -0.4
v -0.2 1 0.2
v -0.1 1 0.2
v 0.1 1 0.2
v 0.2 1 0.2
v -0.1 1 0.1
v 0.1 1 0.1
v -0.2 1 -0.1
v -0.1 1 -0.1
v 0.1 1 -0.1
v 0.2 1 -0.1
v -0.1 1 -0.3
v 0.1 1 -0.3
v -0.1 1.1 0.1
v 0.1 1.1 0.1
v -0.1 1.1 -0.1
v 0.1 1.1 -0.1

# faces
f 3/7/1 2/7/1 1/7/1
f 4/7/1 2/7/1 3/7/1
f 7/7/1 6/7/1 5/7/1
f 8/7/1 6/7/1 7/7/1
f 12/7/1 10/7/1 9/7/1
f 13/7/1 10/7/1 12/7/1
f 15/4/1 12/4/1 11/4/1
f 16/4/1 12/4/1 15/4/1
f 17/6/1 16/6/1 15/6/1
f 18/6/1 16/6/1 17/6/1
f 19/7/1 14/7/1 13/7/1
f 20/7/1 14/7/1 19/7/1
f 21/7/1 19/7/1 18/7/1
f 22/7/1 19/7/1 21/7/1
f 25/7/1 24/7/1 23/7/1
f 26/7/1 24/7/1 25/7/1
f 28/7/1 27/7/1 26/7/1
f 31/7/1 28/7/1 26/7/1
f 31/7/1 29/7/1 28/7/1
f 32/7/1 29/7/1 31/7/1
f 33/7/1 29/7/1 32/7/1
f 35/4/1 31/4/1 30/4/1
f 36/4/1 31/4/1 35/4/1
f 37/7/1 34/7/1 33/7/1
f 37/7/1 33/7/1 32/7/1
f 38/7/1 34/7/1 37/7/1
f 42/9/1 41/9/1 40/9/1
f 43/9/1 41/9/1 42/9/1
f 46/7/1 39/7/1 38/7/1
f 47/7/1 39/7/1 46/7/1
f 48/6/1 44/6/1 43/6/1
f 49/6/1 44/6/1 48/6/1
f 50/7/1 46/7/1 45/7/1
f 51/7/1 46/7/1 50/7/1
f 52/7/1 49/7/1 48/7/1
f 52/7/1 50/7/1 49/7/1
f 53/7/1 50/7/1 52/7/1
f 58/7/1 55/7/1 54/7/1
f 59/7/1 55/7/1 58/7/1
f 60/7/1 57/7/1 56/7/1
f 61/7/1 57/7/1 60/7/1
f 66/7/1 62/7/1 61/7/1
f 67/7/1 62/7/1 66/7/1
f 68/3/1 64/3/1 63/3/1
f 69/4/1 65/4/1 64/4/1
f 69/3/1 64/3/1 68/3/1
f 72/2/1 69/2/1 68/2/1
f 73/4/1 65/4/1 69/4/1
f 73/2/1 69/2/1 72/2/1
f 74/4/1 65/4/1 73/4/1
f 75/7/1 71/7/1 70/7/1
f 76/7/1 71/7/1 75/7/1
f 80/7/1 78/7/1 77/7/1
f 81/7/1 78/7/1 80/7/1
f 83/7/1 80/7/1 79/7/1
f 84/7/1 80/7/1 83/7/1
f 85/7/1 83/7/1 82/7/1
f 86/7/1 83/7/1 85/7/1
f 89/7/1 88/7/1 87/7/1
f 90/7/1 88/7/1 89/7/1
f 91/7/1 88/7/1 90/7/1
f 92/7/1 88/7/1 91/7/1
f 93/7/2 94/7/2 95/7/2
f 95/7/2 94/7/2 96/7/2
f 96/7/2 94/7/2 97/7/2
f 97/7/2 94/7/2 98/7/2
f 99/7/2 100/7/2 103/7/2
f 103/7/2 100/7/2 104/7/2
f 101/7/2 102/7/2 105/7/2
f 105/7/2 102/7/2 106/7/2
f 106/7/2 107/7/2 111/7/2
f 111/7/2 107/7/2 112/7/2
f 108/3/2 109/3/2 113/3/2
f 109/4/2 110/4/2 114/4/2
f 113/3/2 109/3/2 114/3/2
f 113/2/2 114/2/2 117/2/2
f 114/4/2 110/4/2 118/4/2
f 117/2/2 114/2/2 118/2/2
f 118/4/2 110/4/2 119/4/2
f 115/7/2 116/7/2 120/7/2
f 120/7/2 116/7/2 121/7/2
f 122/7/2 123/7/2 125/7/2
f 125/7/2 123/7/2 126/7/2
f 124/7/2 125/7/2 128/7/2
f 128/7/2 125/7/2 129/7/2
f 127/7/2 128/7/2 130/7/2
f 130/7/2 128/7/2 131/7/2
f 132/7/2 133/7/2 134/7/2
f 134/7/2 133/7/2 135/7/2
f 135/7/2 136/7/2 137/7/2
f 135/7/2 137/7/2 140/7/2
f 137/7/2 138/7/2 140/7/2
f 140/7/2 138/7/2 141/7/2
f 141/7/2 138/7/2 142/7/2
f 139/4/2 140/4/2 144/4/2
f 144/4/2 140/4/2 145/4/2
f 142/7/2 143/7/2 146/7/2
f 141/7/2 142/7/2 146/7/2
f 146/7/2 143/7/2 147/7/2
f 149/9/2 150/9/2 151/9/2
f 151/9/2 150/9/2 152/9/2
f 147/7/2 148/7/2 155/7/2
f 155/7/2 148/7/2 156/7/2
f 152/6/2 153/6/2 157/6/2
f 157/6/2 153/6/2 158/6/2
f 154/7/2 155/7/2 159/7/2
f 159/7/2 155/7/2 160/7/2
f 157/7/2 158/7/2 161/7/2
f 158/7/2 159/7/2 161/7/2
f 161/7/2 159/7/2 162/7/2
f 163/7/2 164/7/2 165/7/2
f 165/7/2 164/7/2 166/7/2
f 167/7/2 168/7/2 170/7/2
f 170/7/2 168/7/2 171/7/2
f 169/4/2 170/4/2 173/4/2
f 173/4/2 170/4/2 174/4/2
f 173/6/2 174/6/2 175/6/2
f 175/6/2 174/6/2 176/6/2
f 171/7/2 172/7/2 177/7/2
f 177/7/2 172/7/2 178/7/2
f 176/7/2 177/7/2 179/7/2
f 179/7/2 177/7/2 180/7/2
f 181/7/2 182/7/2 183/7/2
f 183/7/2 182/7/2 184/7/2
f 188/3/3 186/3/3 185/3/3
f 189/2/3 187/2/3 186/2/3
f 189/3/3 186/3/3 188/3/3
f 190/2/3 187/2/3 189/2/3
f 193/9/3 192/9/3 191/9/3
f 194/9/3 192/9/3 193/9/3
f 195/4/3 194/4/3 193/4/3
f 196/4/3 194/4/3 195/4/3
f 197/9/3 196/9/3 195/9/3
f 198/9/3 196/9/3 197/9/3
f 205/4/3 200/4/3 199/4/3
f 206/6/3 201/6/3 200/6/3
f 206/4/3 200/4/3 205/4/3
f 207/6/3 201/6/3 206/6/3
f 210/7/3 203/7/3 202/7/3
f 211/7/3 203/7/3 210/7/3
f 213/4/3 205/4/3 204/4/3
f 213/4/3 206/4/3 205/4/3
f 214/4/3 206/4/3 213/4/3
f 215/4/3 206/4/3 214/4/3
f 216/6/3 208/6/3 207/6/3
f 217/7/3 209/7/3 208/7/3
f 217/6/3 208/6/3 216/6/3
f 218/7/3 209/7/3 217/7/3
f 221/7/3 213/7/3 212/7/3
f 222/4/3 214/4/3 213/4/3
f 222/7/3 213/7/3 221/7/3
f 223/4/3 214/4/3 222/4/3
f 225/4/3 218/4/3 217/4/3
f 225/4/3 217/4/3 216/4/3
f 226/4/3 218/4/3 225/4/3
f 227/4/3 218/4/3 226/4/3
f 228/7/3 220/7/3 219/7/3
f 229/7/3 220/7/3 228/7/3
f 230/4/3 224/4/3 223/4/3
f 230/4/3 223/4/3 222/4/3
f 231/4/3 224/4/3 230/4/3
f 232/4/3 224/4/3 231/4/3
f 233/6/3 226/6/3 225/6/3
f 234/7/3 227/7/3 226/7/3
f 234/6/3 226/6/3 233/6/3
f 235/7/3 227/7/3 234/7/3
f 236/4/3 232/4/3 231/4/3
f 237/6/3 233/6/3 232/6/3
f 237/4/3 232/4/3 236/4/3
f 238/6/3 233/6/3 237/6/3
f 244/7/3 240/7/3 239/7/3
f 245/7/3 240/7/3 244/7/3
f 246/7/3 240/7/3 245/7/3
f 248/7/3 242/7/3 241/7/3
f 249/7/3 242/7/3 248/7/3
f 250/7/3 244/7/3 243/7/3
f 251/7/3 244/7/3 250/7/3
f 252/7/3 247/7/3 246/7/3
f 253/7/3 247/7/3 252/7/3
f 254/7/3 250/7/3 249/7/3
f 255/7/3 250/7/3 254/7/3
f 256/7/3 250/7/3 255/7/3
f 262/7/3 258/7/3 257/7/3
f 263/7/3 258/7/3 262/7/3
f 265/7/3 261/7/3 260/7/3
f 265/7/3 260/7/3 259/7/3
f 266/7/3 261/7/3 265/7/3
f 270/7/3 265/7/3 264/7/3
f 271/7/3 265/7/3 270/7/3
f 272/7/3 267/7/3 266/7/3
f 273/7/3 267/7/3 272/7/3
f 275/7/3 269/7/3 268/7/3
f 276/7/3 269/7/3 275/7/3
f 277/7/3 274/7/3 273/7/3
f 277/7/3 275/7/3 274/7/3
f 278/7/3 275/7/3 277/7/3
f 279/7/4 280/7/4 281/7/4
f 279/7/4 281/7/4 283/7/4
f 281/7/4 282/7/4 283/7/4
f 283/7/4 282/7/4 284/7/4
f 285/7/4 286/7/4 287/7/4
f 287/7/4 286/7/4 288/7/4
f 285/7/4 287/7/4 289/7/4
f 289/7/4 287/7/4 290/7/4
f 291/7/4 292/7/4 294/7/4
f 294/7/4 292/7/4 295/7/4
f 293/7/4 294/7/4 297/7/4
f 297/7/4 294/7/4 298/7/4
f 295/7/4 296/7/4 299/7/4
f 299/7/4 296/7/4 300/7/4
f 300/7/4 301/7/4 302/7/4
f 302/7/4 301/7/4 303/7/4
f 303/7/4 304/7/4 306/7/4
f 306/7/4 304/7/4 307/7/4
f 305/7/4 306/7/4 311/7/4
f 311/7/4 306/7/4 312/7/4
f 308/7/4 309/7/4 313/7/4
f 313/7/4 309/7/4 314/7/4
f 310/7/4 311/7/4 315/7/4
f 315/7/4 311/7/4 316/7/4
f 314/7/4 315/7/4 317/7/4
f 317/7/4 315/7/4 318/7/4
f 319/7/4 320/7/4 321/7/4
f 321/7/4 320/7/4 322/7/4
f 323/7/4 324/7/4 325/7/4
f 325/7/4 324/7/4 326/7/4
f 327/7/4 328/7/4 330/7/4
f 330/7/4 328/7/4 331/7/4
f 329/7/4 330/7/4 334/7/4
f 334/7/4 330/7/4 335/7/4
f 331/7/4 332/7/4 336/7/4
f 336/7/4 332/7/4 337/7/4
f 333/7/4 334/7/4 339/7/4
f 339/7/4 334/7/4 340/7/4
f 337/7/4 338/7/4 343/7/4
f 343/7/4 338/7/4 344/7/4
f 340/7/4 341/7/4 345/7/4
f 345/7/4 341/7/4 346/7/4
f 342/7/4 343/7/4 347/7/4
f 347/7/4 343/7/4 348/7/4
f 346/7/4 347/7/4 349/7/4
f 349/7/4 347/7/4 350/7/4
f 351/7/4 352/7/4 354/7/4
f 354/7/4 352/7/4 355/7/4
f 355/7/4 352/7/4 356/7/4
f 356/7/4 352/7/4 357/7/4
f 353/7/4 354/7/4 359/7/4
f 354/7/4 355/7/4 359/7/4
f 359/7/4 355/7/4 360/7/4
f 360/7/4 355/7/4 361/7/4
f 357/7/4 358/7/4 362/7/4
f 356/7/4 357/7/4 362/7/4
f 362/7/4 358/7/4 363/7/4
f 363/7/4 358/7/4 364/7/4
f 360/7/4 361/7/4 365/7/4
f 362/7/4 363/7/4 365/7/4
f 361/7/4 362/7/4 365/7/4
f 365/7/4 363/7/4 366/7/4
f 367/7/4 368/7/4 369/7/4
f 369/7/4 368/7/4 370/7/4
f 376/7/5 372/7/5 371/7/5
f 377/7/5 374/7/5 373/7/5
f 379/7/5 376/7/5 375/7/5
f 380/7/5 372/7/5 376/7/5
f 380/7/5 376/7/5 379/7/5
f 381/7/5 378/7/5 377/7/5
f 381/7/5 377/7/5 373/7/5
f 382/7/5 378/7/5 381/7/5
f 385/7/5 384/7/5 383/7/5
f 386/7/5 384/7/5 385/7/5
f 388/7/5 386/7/5 385/7/5
f 389/7/5 386/7/5 388/7/5
f 391/7/5 389/7/5 388/7/5
f 391/7/5 390/7/5 389/7/5
f 391/7/5 388/7/5 387/7/5
f 392/7/5 390/7/5 391/7/5
f 393/7/5 390/7/5 392/7/5
f 394/7/5 390/7/5 393/7/5
f 395/7/5 393/7/5 392/7/5
f 396/7/5 393/7/5 395/7/5
f 402/4/5 398/4/5 397/4/5
f 403/4/5 398/4/5 402/4/5
f 404/4/5 400/4/5 399/4/5
f 405/4/5 400/4/5 404/4/5
f 407/7/5 402/7/5 401/7/5
f 408/7/5 402/7/5 407/7/5
f 409/7/5 406/7/5 405/7/5
f 410/7/5 406/7/5 409/7/5
f 415/7/5 412/7/5 411/7/5
f 416/7/5 412/7/5 415/7/5
f 417/7/5 414/7/5 413/7/5
f 418/7/5 414/7/5 417/7/5
f 419/7/5 417/7/5 416/7/5
f 420/7/5 417/7/5 419/7/5
f 423/3/5 422/3/5 421/3/5
f 424/3/5 422/3/5 423/3/5
f 427/4/5 424/4/5 423/4/5
f 428/4/5 424/4/5 427/4/5
f 432/4/5 426/4/5 425/4/5
f 433/4/5 426/4/5 432/4/5
f 434/4/5 430/4/5 429/4/5
f 435/4/5 430/4/5 434/4/5
f 437/7/5 432/7/5 431/7/5
f 438/7/5 432/7/5 437/7/5
f 441/7/5 436/7/5 435/7/5
f 442/7/5 436/7/5 441/7/5
f 443/7/5 439/7/5 438/7/5
f 444/7/5 439/7/5 443/7/5
f 447/7/5 441/7/5 440/7/5
f 448/7/5 441/7/5 447/7/5
f 449/7/5 445/7/5 444/7/5
f 450/7/5 445/7/5 449/7/5
f 451/7/5 447/7/5 446/7/5
f 452/7/5 447/7/5 451/7/5
f 455/7/5 454/7/5 453/7/5
f 456/7/5 454/7/5 455/7/5
f 461/9/5 458/9/5 457/9/5
f 462/9/5 458/9/5 461/9/5
f 463/9/5 460/9/5 459/9/5
f 464/9/5 460/9/5 463/9/5
f 465/7/6 466/7/6 470/7/6
f 470/7/6 466/7/6 471/7/6
f 467/7/6 468/7/6 472/7/6
f 472/7/6 468/7/6 473/7/6
f 469/7/6 470/7/6 475/7/6
f 475/7/6 470/7/6 476/7/6
f 473/7/6 474/7/6 477/7/6
f 477/7/6 474/7/6 478/7/6
f 479/2/6 480/2/6 481/2/6
f 481/2/6 480/2/6 482/2/6
f 483/7/6 484/7/6 485/7/6
f 485/7/6 484/7/6 486/7/6
f 487/9/6 488/9/6 492/9/6
f 488/4/6 489/4/6 493/4/6
f 492/9/6 488/9/6 493/9/6
f 489/9/6 490/9/6 494/9/6
f 493/4/6 489/4/6 494/4/6
f 494/9/6 490/9/6 495/9/6
f 491/6/6 492/6/6 498/6/6
f 498/6/6 492/6/6 499/6/6
f 495/6/6 496/6/6 500/6/6
f 500/6/6 496/6/6 501/6/6
f 497/7/6 498/7/6 503/7/6
f 503/7/6 498/7/6 504/7/6
f 501/7/6 502/7/6 507/7/6
f 507/7/6 502/7/6 508/7/6
f 504/7/6 505/7/6 509/7/6
f 509/7/6 505/7/6 510/7/6
f 506/7/6 507/7/6 513/7/6
f 513/7/6 507/7/6 514/7/6
f 510/7/6 511/7/6 515/7/6
f 515/7/6 511/7/6 516/7/6
f 512/7/6 513/7/6 517/7/6
f 517/7/6 513/7/6 518/7/6
f 519/7/6 520/7/6 523/7/6
f 523/7/6 520/7/6 524/7/6
f 521/7/6 522/7/6 527/7/6
f 527/7/6 522/7/6 528/7/6
f 524/7/6 525/7/6 529/7/6
f 529/7/6 525/7/6 530/7/6
f 526/7/6 527/7/6 531/7/6
f 531/7/6 527/7/6 532/7/6
f 530/7/6 531/7/6 533/7/6
f 533/7/6 531/7/6 534/7/6
f 535/7/6 536/7/6 539/7/6
f 536/4/6 537/4/6 539/4/6
f 537/7/6 538/7/6 540/7/6
f 539/4/6 537/4/6 540/4/6
f 535/7/6 539/7/6 541/7/6
f 541/7/6 539/7/6 542/7/6
f 540/7/6 538/7/6 543/7/6
f 543/7/6 538/7/6 544/7/6
f 542/7/6 543/7/6 545/7/6
f 545/7/6 543/7/6 546/7/6
f 547/7/6 548/7/6 549/7/6
f 549/7/6 548/7/6 550/7/6
